<?xml version="1.0" encoding="UTF-8"?>
<!DOCTYPE svg PUBLIC "-//W3C//DTD SVG 1.1//EN" "http://www.w3.org/Graphics/SVG/1.1/DTD/svg11.dtd">
<!-- Creator: CorelDRAW X6 -->
<svg xmlns="http://www.w3.org/2000/svg" xml:space="preserve" width="27.5591in" height="6.49606in" version="1.1" style="shape-rendering:geometricPrecision; text-rendering:geometricPrecision; image-rendering:optimizeQuality; fill-rule:evenodd; clip-rule:evenodd"
viewBox="0 0 27559 6496"
 xmlns:xlink="http://www.w3.org/1999/xlink">
 <defs>
  <style type="text/css">
   <![CDATA[
    .fil0 {fill:none}
    .fil1 {fill:#606062}
    .fil2 {fill:#F47F34}
    .fil4 {fill:#606062;fill-rule:nonzero}
    .fil3 {fill:#F47F34;fill-rule:nonzero}
   ]]>
  </style>
 </defs>
 <g id="Layer_x0020_1">
  <metadata id="CorelCorpID_0Corel-Layer"/>
  <rect class="fil0" width="27559" height="6496"/>
  <path class="fil1" d="M4668 5379c-82,28 -125,40 -149,37 -148,31 -301,48 -458,48 -1215,0 -2200,-985 -2200,-2200 0,-158 17,-311 48,-460l13 -91c-198,-87 -315,-152 -479,-273 -45,-33 -36,-32 -84,-44l-53 150c-15,57 -28,123 -38,176 -151,790 69,1673 559,2286 851,1065 2300,1436 3568,759 737,-394 1239,-1069 1438,-1894 57,-236 76,-504 65,-773 -7,-165 -61,-603 -136,-706 -54,13 -288,194 -462,274 -123,56 -102,24 -89,129 32,150 49,305 49,465 0,1005 -674,1852 -1594,2116z"/>
  <path class="fil2" d="M2755 707c19,89 25,30 91,134 28,43 50,85 77,134 54,96 97,203 156,281 56,-8 145,-59 206,-81 1030,-369 1566,59 1758,75 63,-56 175,-349 275,-461 9,-10 15,-16 22,-24 45,-53 -39,50 15,-18 2,-3 6,-8 7,-10 2,-2 5,-7 7,-10 -75,-91 -469,-211 -570,-242 -467,-142 -987,-120 -1451,-7 -232,57 -400,145 -595,228z"/>
  <path class="fil2" d="M5648 705c-306,88 -293,136 -482,493 -93,175 -162,212 -159,336 3,186 163,211 182,307 24,125 16,202 203,288 101,47 44,48 101,143 30,50 69,86 134,110 121,46 91,-19 133,108 80,238 302,208 494,116 198,-95 422,-234 576,-398 452,-477 -514,-1697 -1182,-1505z"/>
  <path class="fil2" d="M2234 702c-157,34 -189,26 -362,127 -288,168 -521,474 -645,817 -130,359 -5,525 209,695 212,168 788,570 931,138 39,-117 30,-51 141,-101 194,-86 82,-183 234,-253 209,-97 177,-226 194,-297 10,-40 79,-83 114,-125 109,-132 76,-249 -8,-360 -164,-217 -198,-477 -396,-579 -116,-60 -250,-96 -412,-62z"/>
  <path class="fil2" d="M4676 2359c0,0 0,0 0,0l0 0 -509 822c-44,72 -148,72 -193,0l0 0 -509 -822c0,0 0,0 0,0l0 0c-149,-267 -530,-260 -675,0l0 0c0,0 0,0 0,0l0 0 -428 692c396,-358 665,72 665,72l0 0c270,435 676,1085 704,1132l0 0c147,268 532,265 677,0l0 0c29,-46 434,-697 704,-1132l0 0c0,0 270,-430 665,-72l0 0 -428 -692c0,0 0,0 0,0l0 0c-73,-131 -206,-198 -339,-198l0 0c-131,0 -262,65 -336,198l0 0z"/>
  <path class="fil1" d="M5114 3123c-32,51 -66,105 -100,161 271,436 335,532 335,532l0 0c0,0 0,0 0,0l0 0c104,186 339,253 525,149l0 0c186,-104 253,-339 149,-525l0 0 -243 -390c-116,-105 -222,-142 -312,-142l0 0c-218,0 -353,215 -353,215l0 0z"/>
  <path class="fil1" d="M2363 3050l-243 390c-104,186 -37,421 149,525l0 0c186,104 421,37 525,-149l0 0c0,0 0,0 0,0l0 0c0,0 64,-96 335,-532 -35,-56 -68,-110 -100,-161l0 0c0,0 -134,-215 -353,-215l0 0c-91,0 -196,37 -312,142l0 0z"/>
  <path class="fil3" d="M9719 3755l-4 -1512 -741 1245 -263 0 -738 -1213 0 1479 -547 0 0 -2520 482 0 943 1566 928 -1566 479 0 7 2520 -547 0zm1972 43c-199,0 -392,-27 -577,-81 -186,-54 -335,-124 -448,-211l198 -439c108,79 236,143 385,191 149,48 297,72 446,72 166,0 288,-25 367,-74 79,-49 119,-115 119,-196 0,-60 -23,-110 -70,-149 -47,-40 -107,-71 -180,-95 -73,-24 -172,-50 -297,-79 -192,-46 -349,-91 -471,-137 -122,-46 -227,-119 -315,-220 -88,-101 -131,-235 -131,-403 0,-146 40,-279 119,-398 79,-119 198,-213 358,-283 160,-70 354,-104 585,-104 161,0 318,19 471,58 154,38 288,94 403,166l-180 443c-233,-132 -465,-198 -698,-198 -163,0 -284,26 -362,79 -78,53 -117,122 -117,209 0,86 45,151 135,193 90,42 227,83 412,124 192,46 349,91 471,137 122,46 227,118 315,216 88,98 131,232 131,400 0,144 -40,275 -121,394 -80,119 -201,213 -362,283 -161,70 -356,104 -586,104zm1468 -2563l1144 0c273,0 515,52 725,157 210,104 373,251 489,441 116,190 175,410 175,662 0,252 -58,473 -175,662 -116,190 -279,337 -489,441 -210,104 -452,157 -725,157l-1144 0 0 -2520zm1115 2041c252,0 453,-70 603,-211 150,-140 225,-331 225,-571 0,-240 -75,-430 -225,-571 -150,-140 -351,-211 -603,-211l-533 0 0 1562 533 0z"/>
  <path class="fil4" d="M17703 3799c-257,0 -489,-56 -696,-167 -208,-112 -371,-266 -490,-464 -119,-198 -178,-422 -178,-671 0,-250 59,-473 178,-671 119,-198 282,-353 490,-464 208,-112 441,-167 700,-167 218,0 416,38 592,115 176,77 325,187 445,331l-374 346c-170,-197 -382,-295 -633,-295 -156,0 -295,34 -418,103 -122,68 -218,164 -286,286 -68,122 -103,262 -103,418 0,156 34,295 103,418 68,122 164,218 286,286 122,68 262,103 418,103 252,0 463,-100 633,-299l374 346c-120,146 -269,258 -446,335 -178,77 -376,115 -594,115zm3041 -583l-1170 0 -223 540 -598 0 1123 -2520 576 0 1127 2520 -612 0 -223 -540zm-184 -443l-400 -965 -400 965 799 0zm2887 983l-486 -702 -29 0 -508 0 0 702 -583 0 0 -2520 1091 0c223,0 417,37 581,112 164,74 291,180 380,317 89,137 133,299 133,486 0,187 -45,349 -135,484 -90,136 -218,239 -383,311l565 810 -626 0zm-11 -1605c0,-142 -46,-250 -137,-326 -91,-76 -224,-113 -400,-113l-475 0 0 878 475 0c175,0 308,-38 400,-115 91,-77 137,-185 137,-324zm1879 1649c-199,0 -392,-27 -578,-81 -186,-54 -335,-124 -448,-211l198 -439c108,79 236,143 385,191 149,48 298,72 446,72 166,0 288,-25 367,-74 79,-49 119,-115 119,-196 0,-60 -23,-110 -70,-149 -47,-40 -107,-71 -180,-95 -73,-24 -172,-50 -297,-79 -192,-46 -349,-91 -472,-137 -122,-46 -227,-119 -315,-220 -88,-101 -131,-235 -131,-403 0,-146 40,-279 119,-398 79,-119 199,-213 358,-283 160,-70 355,-104 585,-104 161,0 318,19 472,58 154,38 288,94 403,166l-180 443c-233,-132 -466,-198 -698,-198 -163,0 -284,26 -362,79 -78,53 -117,122 -117,209 0,86 45,151 135,193 90,42 227,83 412,124 192,46 349,91 472,137 122,46 227,118 315,216 88,98 131,232 131,400 0,144 -40,275 -121,394 -80,119 -201,213 -362,283 -161,70 -356,104 -587,104z"/>
  <path class="fil4" d="M8812 4350l-186 938 -204 0 110 -557 -358 458 -96 0 -193 -463 -113 563 -204 0 188 -938 177 0 234 584 458 -584 186 0zm1025 217l-143 721 -198 0 13 -71c-60,54 -134,82 -221,82 -56,0 -108,-13 -155,-39 -47,-26 -85,-63 -113,-112 -28,-49 -42,-106 -42,-172 0,-79 18,-151 53,-215 35,-64 83,-114 144,-150 61,-36 128,-54 201,-54 111,0 189,36 234,108l19 -98 209 0zm-485 559c41,0 78,-10 110,-30 32,-20 57,-48 75,-84 18,-36 27,-77 27,-123 0,-49 -15,-88 -44,-117 -29,-29 -69,-43 -121,-43 -41,0 -78,10 -110,30 -32,20 -57,48 -75,84 -18,36 -27,77 -27,123 0,49 15,88 44,117 29,29 69,43 121,43zm1593 -832l-198 994 -198 0 15 -72c-61,55 -134,83 -221,83 -56,0 -108,-13 -155,-39 -47,-26 -85,-63 -113,-112 -28,-49 -42,-106 -42,-172 0,-79 18,-151 53,-215 35,-64 83,-114 144,-150 61,-36 128,-54 201,-54 53,0 99,9 139,27 40,18 71,44 94,79l74 -368 209 0zm-538 832c41,0 78,-10 110,-30 32,-20 57,-48 75,-84 18,-36 27,-77 27,-123 0,-49 -15,-88 -44,-117 -29,-29 -69,-43 -121,-43 -41,0 -78,10 -110,30 -32,20 -57,48 -75,84 -18,36 -27,77 -27,123 0,49 15,88 44,117 29,29 69,43 121,43zm986 -473c31,-34 69,-58 113,-74 44,-15 96,-23 156,-23l-38 193c-25,-2 -41,-3 -48,-3 -63,0 -114,16 -152,47 -38,31 -64,80 -77,146l-70 348 -209 0 143 -721 198 0 -17 86zm1243 -86l-143 721 -198 0 13 -71c-60,54 -134,82 -221,82 -56,0 -108,-13 -155,-39 -47,-26 -85,-63 -113,-112 -28,-49 -42,-106 -42,-172 0,-79 18,-151 53,-215 35,-64 83,-114 144,-150 61,-36 128,-54 201,-54 111,0 189,36 234,108l19 -98 209 0zm-485 559c41,0 78,-10 110,-30 32,-20 57,-48 75,-84 18,-36 27,-77 27,-123 0,-49 -15,-88 -44,-117 -29,-29 -69,-43 -121,-43 -41,0 -78,10 -110,30 -32,20 -57,48 -75,84 -18,36 -27,77 -27,123 0,49 15,88 44,117 29,29 69,43 121,43zm924 173c-63,0 -122,-7 -177,-21 -56,-14 -99,-32 -131,-54l80 -151c31,21 69,37 115,50 45,13 90,19 136,19 47,0 83,-6 106,-18 23,-12 35,-29 35,-52 0,-18 -10,-31 -31,-39 -21,-8 -54,-17 -99,-25 -52,-10 -94,-21 -128,-32 -33,-12 -63,-31 -87,-57 -25,-26 -37,-62 -37,-108 0,-79 33,-142 100,-186 67,-45 154,-67 262,-67 50,0 99,5 146,16 47,11 88,25 121,44l-75 153c-59,-37 -130,-55 -213,-55 -46,0 -80,7 -104,20 -24,13 -35,30 -35,51 0,19 10,32 31,41 21,8 55,18 103,27 51,10 93,20 125,31 33,11 61,30 85,56 24,26 36,61 36,106 0,80 -34,142 -101,186 -67,44 -155,66 -262,66zm1295 5c-74,0 -145,-10 -213,-29 -68,-20 -122,-45 -163,-75l88 -167c43,31 91,55 145,72 54,17 108,25 165,25 60,0 107,-10 142,-29 35,-20 52,-46 52,-80 0,-28 -14,-49 -42,-64 -28,-15 -72,-31 -133,-48 -61,-18 -110,-35 -149,-52 -38,-17 -72,-41 -100,-74 -28,-33 -42,-77 -42,-131 0,-63 18,-119 53,-167 35,-48 85,-85 150,-111 65,-26 140,-39 226,-39 63,0 123,7 179,21 56,14 104,34 145,60l-82 166c-35,-24 -74,-42 -118,-54 -44,-12 -89,-18 -137,-18 -62,0 -110,11 -146,32 -36,21 -54,49 -54,83 0,21 8,38 23,52 15,14 34,25 58,33 23,8 56,19 98,30 60,16 109,32 147,49 38,17 71,41 98,72 27,32 41,73 41,125 0,64 -18,120 -54,168 -36,48 -86,85 -151,111 -65,26 -141,40 -228,40zm1424 -430c0,33 -4,70 -12,110l-552 0c7,98 69,147 186,147 37,0 72,-6 105,-17 33,-12 63,-28 88,-50l87 138c-40,32 -86,56 -138,72 -52,16 -106,24 -163,24 -74,0 -139,-13 -195,-40 -56,-26 -99,-64 -129,-113 -30,-49 -45,-106 -45,-170 0,-79 18,-151 54,-215 36,-64 86,-114 151,-150 64,-36 138,-54 220,-54 70,0 130,13 181,39 51,26 91,63 119,111 28,48 42,104 42,167zm-352 -161c-49,0 -91,13 -125,40 -34,26 -58,63 -72,109l358 0c0,-46 -15,-83 -44,-109 -29,-26 -68,-40 -117,-40zm737 -419l209 0 -198 994 -209 0 198 -994zm873 154c-32,0 -57,9 -76,26 -18,17 -31,45 -38,82l-5 27 184 0 -32 161 -178 0 -108 544 -209 0 108 -544 -113 0 32 -161 113 0 8 -42c17,-80 52,-144 105,-190 53,-46 123,-69 208,-69 32,0 63,4 92,11 29,7 54,17 74,29l-82 150c-22,-17 -50,-25 -83,-25zm737 -98l392 0c96,0 178,16 247,48 69,32 122,77 159,136 37,59 56,128 56,208 0,109 -25,205 -74,287 -49,83 -118,146 -206,192 -88,45 -190,68 -305,68l-458 0 188 -938zm277 759c73,0 137,-15 191,-46 54,-31 95,-73 124,-127 29,-54 43,-115 43,-183 0,-71 -23,-126 -68,-165 -46,-40 -112,-60 -198,-60l-186 0 -117 581 212 0zm1080 -457c31,-34 69,-58 113,-74 44,-15 96,-23 156,-23l-38 193c-25,-2 -41,-3 -48,-3 -63,0 -114,16 -152,47 -38,31 -64,80 -77,146l-70 348 -209 0 143 -721 198 0 -17 86zm518 -86l208 0 -143 721 -208 0 143 -721zm139 -100c-36,0 -65,-10 -88,-31 -23,-21 -34,-47 -34,-77 0,-36 13,-65 38,-89 25,-24 59,-35 100,-35 37,0 66,10 89,30 23,20 34,45 34,74 0,38 -13,69 -39,93 -26,24 -59,35 -100,35zm1105 100l-447 721 -216 0 -159 -721 206 0 104 492 303 -492 209 0zm832 307c0,33 -4,70 -12,110l-552 0c7,98 69,147 186,147 37,0 72,-6 105,-17 33,-12 63,-28 88,-50l87 138c-40,32 -86,56 -138,72 -52,16 -106,24 -163,24 -74,0 -139,-13 -195,-40 -56,-26 -99,-64 -129,-113 -30,-49 -45,-106 -45,-170 0,-79 18,-151 54,-215 36,-64 86,-114 151,-150 64,-36 138,-54 220,-54 70,0 130,13 181,39 51,26 91,63 119,111 28,48 42,104 42,167zm-352 -161c-49,0 -91,13 -125,40 -34,26 -58,63 -72,109l358 0c0,-46 -15,-83 -44,-109 -29,-26 -68,-40 -117,-40zm1424 591c-94,0 -176,-17 -246,-51 -70,-34 -124,-82 -161,-143 -38,-62 -56,-133 -56,-213 0,-106 24,-202 73,-287 49,-85 117,-152 206,-202 88,-49 190,-74 304,-74 84,0 158,14 222,43 64,29 113,70 146,123l-157 129c-50,-73 -125,-110 -226,-110 -69,0 -129,16 -182,48 -53,32 -94,76 -123,131 -29,55 -44,117 -44,185 0,72 23,130 69,172 46,42 111,64 194,64 99,0 182,-36 249,-108l129 131c-93,108 -225,162 -396,162zm1452 -737l-143 721 -198 0 13 -71c-60,54 -134,82 -221,82 -56,0 -108,-13 -155,-39 -47,-26 -85,-63 -113,-112 -28,-49 -42,-106 -42,-172 0,-79 18,-151 53,-215 35,-64 83,-114 144,-150 61,-36 128,-54 201,-54 111,0 189,36 234,108l19 -98 209 0zm-485 559c41,0 78,-10 110,-30 32,-20 57,-48 75,-84 18,-36 27,-77 27,-123 0,-49 -15,-88 -44,-117 -29,-29 -69,-43 -121,-43 -41,0 -78,10 -110,30 -32,20 -57,48 -75,84 -18,36 -27,77 -27,123 0,49 15,88 44,117 29,29 69,43 121,43zm986 -473c31,-34 69,-58 113,-74 44,-15 96,-23 156,-23l-38 193c-25,-2 -41,-3 -48,-3 -63,0 -114,16 -152,47 -38,31 -64,80 -77,146l-70 348 -209 0 143 -721 198 0 -17 86zm640 646c-63,0 -122,-7 -177,-21 -56,-14 -99,-32 -131,-54l80 -151c31,21 69,37 115,50 45,13 90,19 136,19 47,0 83,-6 106,-18 23,-12 35,-29 35,-52 0,-18 -10,-31 -31,-39 -21,-8 -54,-17 -99,-25 -52,-10 -94,-21 -128,-32 -33,-12 -63,-31 -87,-57 -25,-26 -37,-62 -37,-108 0,-79 33,-142 100,-186 67,-45 154,-67 262,-67 50,0 99,5 146,16 47,11 88,25 121,44l-75 153c-59,-37 -130,-55 -213,-55 -46,0 -80,7 -104,20 -24,13 -35,30 -35,51 0,19 10,32 31,41 21,8 55,18 103,27 51,10 93,20 125,31 33,11 61,30 85,56 24,26 36,61 36,106 0,80 -34,142 -101,186 -67,44 -155,66 -262,66z"/>
 </g>
</svg>
